<svg xmlns="http://www.w3.org/2000/svg" xmlns:xlink="http://www.w3.org/1999/xlink" width="50px" height="50px" viewBox="0 0 50 50" preserveAspectRatio="xMidYMid meet" ><defs id="svgEditorDefs"><polygon id="svgEditorShapeDefs" fill="khaki" stroke="black" style="vector-effect: non-scaling-stroke; stroke-width: 1px;"/></defs><rect id="svgEditorBackground" x="0" y="0" width="50" height="50" style="stroke: none; fill: none;"/><circle id="e1_circle" cx="24.99993133544922" cy="25.00002956390381" style="stroke-width: 1px; stroke: none;" r="23" fill="#f8e16d"/><path d="M31,20a4,4,0,0,1,8,0" stroke="#333333" id="e8_circleArc" style="fill: none; stroke-width: 3px;"/><path d="M11,20a3.881874,3.881874,0,1,1,8,0" stroke="#333333" id="e3_circleArc" style="fill: none; stroke-width: 3px;"/><path d="M16,39a9,9,0,0,1,18,0" style="fill:#333333;stroke:#333333;stroke-width:3px;" id="e1_circleArc"/><path d="M10.999998092651367,20c0.0000019073486328125,0,8.000001907348633,0,8,0c0.0000019073486328125,0,0.0000019073486328125,27,0,27c-1.9999980926513672,0,-7.999998092651367,-3,-7.999998092651367,-4c0,0,0,-23,-0.0000019073486328125,-23Z" style="fill:skyblue;stroke:none;stroke-width:3px;" id="e2_path"/><path d="M31.000001907348633,20c-0.0000019073486328125,0,7.999998092651367,0,8,0c-0.0000019073486328125,0,-0.0000019073486328125,23,0,23c-0.0000019073486328125,1,-6.000001907348633,4,-8,4c-0.0000019073486328125,0,-0.0000019073486328125,-27,0,-27Z" style="fill:skyblue;stroke:none;stroke-width:3px;" id="e4_path"/></svg>